<svg width="40" height="40" viewBox="0 0 40 40" fill="none" xmlns="http://www.w3.org/2000/svg">
<path d="M17.1788 12.0332C18.249 9.36537 18.784 8.03147 19.6533 7.84659C19.8819 7.79798 20.1181 7.79798 20.3467 7.84659C21.216 8.03147 21.7511 9.36537 22.8212 12.0332C23.4298 13.5503 23.734 14.3089 24.3034 14.8248C24.4631 14.9695 24.6364 15.0984 24.821 15.2097C25.4791 15.6063 26.3006 15.6799 27.9435 15.827C30.7248 16.0761 32.1155 16.2006 32.5401 16.9936C32.6281 17.1578 32.6879 17.3356 32.717 17.5196C32.8578 18.4079 31.8355 19.338 29.7908 21.1982L29.2231 21.7148C28.2671 22.5845 27.7892 23.0193 27.5127 23.562C27.3469 23.8875 27.2357 24.2381 27.1836 24.5997C27.0968 25.2025 27.2367 25.8333 27.5166 27.095L27.6166 27.5458C28.1186 29.8083 28.3696 30.9396 28.0563 31.4956C27.7749 31.9951 27.2565 32.3149 26.6838 32.3422C26.0463 32.3727 25.148 31.6407 23.3513 30.1767C22.1676 29.2122 21.5758 28.7299 20.9188 28.5415C20.3184 28.3694 19.6817 28.3694 19.0813 28.5415C18.4242 28.7299 17.8324 29.2122 16.6487 30.1767C14.8521 31.6407 13.9538 32.3727 13.3162 32.3422C12.7436 32.3149 12.2252 31.9951 11.9437 31.4956C11.6304 30.9396 11.8814 29.8083 12.3834 27.5458L12.4834 27.095C12.7633 25.8333 12.9033 25.2025 12.8164 24.5997C12.7643 24.2381 12.6531 23.8875 12.4873 23.562C12.2108 23.0193 11.7329 22.5845 10.777 21.7148L10.2092 21.1982C8.16455 19.338 7.14223 18.4079 7.28302 17.5196C7.31217 17.3356 7.37197 17.1578 7.45992 16.9936C7.88459 16.2006 9.27522 16.0761 12.0565 15.827C13.6995 15.6799 14.521 15.6063 15.179 15.2097C15.3636 15.0984 15.537 14.9695 15.6967 14.8248C16.266 14.3089 16.5703 13.5503 17.1788 12.0332Z" fill="#F2C94C" stroke="#F2C94C" stroke-width="2"/>
</svg>
