<svg width="40" height="40" viewBox="0 0 40 40" fill="none" xmlns="http://www.w3.org/2000/svg">
<path d="M10.9618 15.8795L10.8726 14.8835H10.8726L10.9618 15.8795ZM16.5545 11.7214L15.6264 11.3491V11.3491L16.5545 11.7214ZM8.65767 21.6973L7.98472 22.4369H7.98472L8.65767 21.6973ZM10.6035 15.9116L10.6927 16.9076H10.6927L10.6035 15.9116ZM11.3575 28.4065L10.3812 28.1899V28.1899L11.3575 28.4065ZM11.7063 25.2351L10.7353 25.4744L11.7063 25.2351ZM9.46148 22.4285L10.1344 21.6889L9.46148 22.4285ZM11.5744 24.8192L12.5057 24.4552L11.5744 24.8192ZM15.9856 31.8307L16.6173 32.6059L15.9856 31.8307ZM11.6362 34.4752L11.373 35.44L11.6362 34.4752ZM11.2464 28.9074L12.2226 29.124L11.2464 28.9074ZM10.835 33.981L10.091 34.6492L10.835 33.981ZM23.433 31.8307L22.8013 32.6059L23.433 31.8307ZM20.2349 29.8046L20.0772 30.7921L20.2349 29.8046ZM19.1837 29.8046L19.3414 30.7921L19.1837 29.8046ZM28.1722 28.9074L27.196 29.124V29.124L28.1722 28.9074ZM28.5836 33.981L29.3276 34.6492L28.5836 33.981ZM27.7824 34.4752L28.0456 35.44L27.7824 34.4752ZM29.9571 22.4285L30.6301 23.1682L29.9571 22.4285ZM27.8442 24.8192L28.7756 25.1833L27.8442 24.8192ZM28.0611 28.4065L29.0374 28.1899V28.1899L28.0611 28.4065ZM27.7123 25.2351L28.6833 25.4744L27.7123 25.2351ZM28.8151 15.9116L28.7259 16.9076L28.8151 15.9116ZM30.7609 21.6973L30.088 20.9576H30.088L30.7609 21.6973ZM22.8641 11.7214L21.9359 12.0937L22.8641 11.7214ZM28.4568 15.8795L28.546 14.8835L28.4568 15.8795ZM22.803 11.5692L23.7311 11.1969V11.1969L22.803 11.5692ZM16.6156 11.5692L17.5437 11.9415L17.5437 11.9415L16.6156 11.5692ZM19.7093 6.66667V7.66667V6.66667ZM21.8749 11.9415L21.9359 12.0937L23.7922 11.3491L23.7311 11.1969L21.8749 11.9415ZM28.3676 16.8755L28.7259 16.9076L28.9043 14.9156L28.546 14.8835L28.3676 16.8755ZM30.088 20.9576L29.2842 21.6889L30.6301 23.1682L31.4339 22.4369L30.088 20.9576ZM27.0848 28.6231L27.196 29.124L29.1485 28.6908L29.0374 28.1899L27.0848 28.6231ZM12.2226 29.124L12.3338 28.6231L10.3812 28.1899L10.2701 28.6908L12.2226 29.124ZM10.1344 21.6889L9.33063 20.9576L7.98472 22.4369L8.78852 23.1682L10.1344 21.6889ZM10.6927 16.9076L11.051 16.8755L10.8726 14.8835L10.5143 14.9156L10.6927 16.9076ZM17.4826 12.0936L17.5437 11.9415L15.6875 11.1969L15.6264 11.3491L17.4826 12.0936ZM11.051 16.8755C12.0214 16.7886 12.8242 16.718 13.4759 16.5914C14.1503 16.4605 14.7456 16.2561 15.2854 15.8547L14.0921 14.2497C13.8773 14.4094 13.5998 14.53 13.0947 14.6281C12.567 14.7305 11.8836 14.793 10.8726 14.8835L11.051 16.8755ZM15.6264 11.3491C15.2485 12.2912 14.9919 12.9277 14.7418 13.4035C14.5024 13.8589 14.307 14.0899 14.0921 14.2497L15.2854 15.8547C15.8253 15.4533 16.1925 14.9421 16.5121 14.334C16.821 13.7463 17.1199 12.9979 17.4826 12.0936L15.6264 11.3491ZM9.33063 20.9576C8.10144 19.8393 7.2647 19.0746 6.76273 18.4666C6.5163 18.1681 6.40378 17.9686 6.3579 17.8414C6.32167 17.741 6.33481 17.7127 6.33986 17.6977L4.4442 17.0601C4.0931 18.104 4.62284 19.0161 5.22045 19.7399C5.83593 20.4854 6.80551 21.3641 7.98472 22.4369L9.33063 20.9576ZM10.5143 14.9156C8.92647 15.0578 7.62296 15.172 6.68208 15.394C5.76852 15.6096 4.7953 16.0162 4.4442 17.0601L6.33986 17.6977C6.34491 17.6827 6.35153 17.6522 6.44109 17.5941C6.55451 17.5204 6.76473 17.4295 7.14144 17.3406C7.90881 17.1595 9.03757 17.0558 10.6927 16.9076L10.5143 14.9156ZM12.3338 28.6231C12.5086 27.8351 12.6542 27.1828 12.7271 26.633C12.8024 26.065 12.811 25.5386 12.6772 24.9958L10.7353 25.4744C10.7883 25.6893 10.801 25.9441 10.7445 26.3701C10.6856 26.8143 10.5634 27.3688 10.3812 28.1899L12.3338 28.6231ZM8.78852 23.1682C9.41067 23.7343 9.83009 24.117 10.1342 24.446C10.4259 24.7616 10.5624 24.9771 10.643 25.1833L12.5057 24.4552C12.3022 23.9344 11.9918 23.5092 11.6029 23.0885C11.2264 22.6812 10.7315 22.232 10.1344 21.6889L8.78852 23.1682ZM12.6772 24.9958C12.6319 24.812 12.5746 24.6314 12.5057 24.4552L10.643 25.1833C10.6801 25.2782 10.7109 25.3754 10.7353 25.4744L12.6772 24.9958ZM15.3539 31.0554C14.1606 32.0278 13.3293 32.7034 12.6943 33.1174C12.0023 33.5686 11.847 33.4962 11.8995 33.5105L11.373 35.44C12.2525 35.6799 13.0978 35.2419 13.7866 34.7928C14.5325 34.3065 15.4624 33.547 16.6173 32.6059L15.3539 31.0554ZM10.2701 28.6908C9.94741 30.1452 9.686 31.317 9.58614 32.2018C9.49392 33.019 9.48187 33.971 10.091 34.6492L11.579 33.3128C11.6153 33.3533 11.4809 33.247 11.5735 32.4261C11.6585 31.6729 11.8892 30.6267 12.2226 29.124L10.2701 28.6908ZM11.8995 33.5105C11.7759 33.4768 11.6646 33.4081 11.579 33.3128L10.091 34.6492C10.4335 35.0305 10.8786 35.305 11.373 35.44L11.8995 33.5105ZM24.0647 31.0554C23.3084 30.4392 22.688 29.9323 22.1435 29.5682C21.5841 29.1941 21.0323 28.9193 20.3925 28.8171L20.0772 30.7921C20.3226 30.8313 20.5988 30.9412 21.0317 31.2307C21.4795 31.5301 22.0156 31.9657 22.8013 32.6059L24.0647 31.0554ZM16.6173 32.6059C17.403 31.9657 17.9391 31.5301 18.3869 31.2307C18.8197 30.9412 19.096 30.8313 19.3414 30.7921L19.026 28.8171C18.3863 28.9193 17.8345 29.1941 17.2751 29.5682C16.7306 29.9323 16.1102 30.4392 15.3539 31.0554L16.6173 32.6059ZM20.3925 28.8171C19.9399 28.7449 19.4787 28.7449 19.026 28.8171L19.3414 30.7921C19.5851 30.7532 19.8335 30.7532 20.0772 30.7921L20.3925 28.8171ZM27.196 29.124C27.5294 30.6267 27.7601 31.6729 27.8451 32.4261C27.9377 33.247 27.8033 33.3533 27.8396 33.3128L29.3276 34.6492C29.9367 33.971 29.9247 33.019 29.8325 32.2018C29.7326 31.317 29.4712 30.1452 29.1485 28.6908L27.196 29.124ZM22.8013 32.6059C23.9562 33.547 24.8861 34.3065 25.632 34.7928C26.3208 35.2419 27.1661 35.6799 28.0456 35.44L27.5191 33.5105C27.5716 33.4962 27.4163 33.5686 26.7243 33.1174C26.0893 32.7034 25.258 32.0278 24.0647 31.0554L22.8013 32.6059ZM27.8396 33.3128C27.754 33.4081 27.6427 33.4768 27.5191 33.5105L28.0456 35.44C28.54 35.305 28.9851 35.0305 29.3276 34.6492L27.8396 33.3128ZM29.2842 21.6889C28.6871 22.232 28.1922 22.6812 27.8157 23.0885C27.4268 23.5092 27.1164 23.9344 26.9128 24.4552L28.7756 25.1833C28.8562 24.9771 28.9927 24.7616 29.2844 24.446C29.5885 24.117 30.0079 23.7343 30.6301 23.1682L29.2842 21.6889ZM29.0374 28.1899C28.8552 27.3688 28.733 26.8143 28.6741 26.3701C28.6176 25.9441 28.6303 25.6893 28.6833 25.4744L26.7414 24.9958C26.6076 25.5386 26.6161 26.065 26.6915 26.633C26.7644 27.1828 26.91 27.8351 27.0848 28.6231L29.0374 28.1899ZM26.9128 24.4552C26.844 24.6314 26.7867 24.812 26.7414 24.9958L28.6833 25.4744C28.7077 25.3754 28.7385 25.2782 28.7756 25.1833L26.9128 24.4552ZM28.7259 16.9076C30.381 17.0558 31.5098 17.1595 32.2772 17.3406C32.6539 17.4295 32.8641 17.5204 32.9775 17.5941C33.0671 17.6522 33.0737 17.6827 33.0787 17.6977L34.9744 17.0601C34.6233 16.0162 33.6501 15.6096 32.7365 15.394C31.7956 15.172 30.4921 15.0578 28.9043 14.9156L28.7259 16.9076ZM31.4339 22.4369C32.6131 21.3641 33.5827 20.4854 34.1981 19.7399C34.7957 19.0161 35.3255 18.104 34.9744 17.0601L33.0787 17.6977C33.0838 17.7127 33.0969 17.741 33.0607 17.8414C33.0148 17.9686 32.9023 18.1681 32.6559 18.4666C32.1539 19.0746 31.3172 19.8393 30.088 20.9576L31.4339 22.4369ZM21.9359 12.0937C22.2987 12.9979 22.5976 13.7463 22.9065 14.334C23.2261 14.9421 23.5933 15.4533 24.1331 15.8547L25.3264 14.2497C25.1116 14.0899 24.9162 13.8589 24.6768 13.4035C24.4267 12.9277 24.1701 12.2912 23.7922 11.3491L21.9359 12.0937ZM28.546 14.8835C27.535 14.793 26.8516 14.7305 26.3239 14.6281C25.8188 14.53 25.5413 14.4094 25.3264 14.2497L24.1331 15.8547C24.673 16.2561 25.2683 16.4605 25.9427 16.5914C26.5944 16.718 27.3972 16.7886 28.3676 16.8755L28.546 14.8835ZM23.7311 11.1969C23.0881 9.59368 22.5667 8.28751 22.0547 7.39476C21.5656 6.54208 20.8632 5.66667 19.7093 5.66667V7.66667C19.7176 7.66667 19.747 7.65921 19.8364 7.73519C19.9495 7.83125 20.11 8.02404 20.3198 8.38983C20.745 9.13124 21.207 10.2763 21.8749 11.9415L23.7311 11.1969ZM17.5437 11.9415C18.2116 10.2763 18.6736 9.13124 19.0988 8.38983C19.3086 8.02404 19.4691 7.83125 19.5822 7.73519C19.6716 7.65921 19.701 7.66667 19.7093 7.66667V5.66667C18.5554 5.66667 17.853 6.54208 17.3639 7.39476C16.8519 8.28751 16.3305 9.59368 15.6875 11.1969L17.5437 11.9415Z" fill="#444444"/>
</svg>
